<?xml version="1.0" encoding="UTF-8"?><svg xmlns="http://www.w3.org/2000/svg" viewBox="0 0 19.46 19.09"><defs><style>.f{fill:#fff;}.g{fill:#d0d0d0;}</style></defs><g id="a"/><g id="b"><g id="c"><path class="g" d="M15.48,19.09H3.98c-2.2,0-3.98-1.78-3.98-3.98V3.98C0,1.78,1.78,0,3.98,0H15.48c2.2,0,3.98,1.78,3.98,3.98V15.12c0,2.19-1.78,3.97-3.98,3.97Z"/><path class="f" d="M19.46,15.08v-6.93c-.24-1.96-1.93-3.5-3.96-3.5H3.92c-1.95,0-3.59,1.43-3.92,3.29v7.14c0,2.2,1.78,3.98,3.98,3.98H15.48c2.2,0,3.98-1.78,3.98-3.98Z"/><g id="d"><g id="e"><path d="M12.86,17.06c-.12-.03-.23-.06-.34-.08-.02,0-.05-.01-.07-.03-.36-.18-.73-.35-1.09-.53-2.17-1.11-3.97-2.66-5.41-4.63-1.12-1.53-1.92-3.21-2.42-5.03-.07-.26-.14-.52-.21-.78,0-.03,0-.06,0-.09,.02-.13,.03-.26,.05-.39,.03-.2,.05-.41,.12-.61,.03-.09,.08-.17,.13-.24,.29-.44,.62-.83,1.03-1.17,.55-.45,1.18-.75,1.88-.89,.16-.03,.32-.05,.48-.08,.19-.03,.34,.09,.38,.27,.04,.16,.08,.33,.11,.49,.1,.56,.19,1.12,.28,1.68,.07,.43,.13,.86,.19,1.29,.02,.12,.02,.25,.03,.37,0,.14-.06,.23-.19,.28-.24,.09-.49,.14-.73,.19-.15,.03-.3,.08-.44,.12-.07,.02-.14,.06-.21,.1-.04,.03-.07,.07-.1,.11,.08,2.33,2.68,5.57,5.45,6.28,.08-.04,.15-.1,.18-.18,.03-.06,.05-.12,.06-.19,.04-.18,.09-.36,.17-.53,.02-.05,.06-.1,.09-.14,.05-.06,.12-.09,.2-.09,.31,.02,.62,.04,.93,.07,.31,.03,.61,.06,.92,.09,.54,.06,1.08,.12,1.61,.18,.11,.01,.22,.04,.32,.07,.13,.04,.21,.13,.23,.27,.01,.09,.02,.19,.02,.28,0,.22-.03,.45-.07,.67-.06,.3-.16,.59-.3,.86-.04,.07-.07,.14-.11,.22-.1,.22-.25,.4-.42,.58-.4,.42-.85,.76-1.37,1.02-.25,.12-.5,.21-.78,.23-.18,.01-.36,0-.54-.04-.03,0-.06-.01-.08-.02h0Z"/></g></g></g></g></svg>