<?xml version="1.0" encoding="utf-8"?>
<!-- Generator: Adobe Illustrator 26.1.0, SVG Export Plug-In . SVG Version: 6.00 Build 0)  -->
<svg version="1.1" id="Calque_1" xmlns="http://www.w3.org/2000/svg" xmlns:xlink="http://www.w3.org/1999/xlink" x="0px" y="0px"
	 viewBox="0 0 500 500" style="enable-background:new 0 0 500 500;" xml:space="preserve">
<style type="text/css">
	.st0{fill:#FFFFFF;}
</style>
<g id="a">
</g>
<g id="b">
	<g id="c">
		<path class="st0" d="M311.8,424.6c-2.8-0.7-5.3-1.3-7.8-1.9c-0.5-0.1-1.1-0.3-1.6-0.6c-8.4-4.1-16.9-8.1-25.2-12.4
			c-50.2-25.8-91.9-61.6-125.2-107.1c-25.9-35.3-44.4-74.3-56.1-116.5c-1.7-6-3.2-12-4.8-18c-0.2-0.7-0.1-1.4,0-2.1
			c0.3-3,0.7-6,1.2-9.1c0.7-4.7,1.1-9.6,2.9-14.1c0.8-2,1.9-3.9,3-5.6c6.7-10.2,14.4-19.3,23.9-27c12.8-10.4,27.3-17.3,43.4-20.6
			c3.7-0.8,7.4-1.2,11.2-1.8c4.4-0.7,8,2.1,8.9,6.2c0.8,3.8,1.8,7.6,2.5,11.4c2.2,12.9,4.4,25.9,6.4,38.9c1.6,10,3.1,19.9,4.5,29.9
			c0.4,2.8,0.6,5.7,0.7,8.6c0.1,3.3-1.4,5.3-4.4,6.4c-5.5,2-11.3,3.1-17,4.5c-3.4,0.8-6.9,1.8-10.2,2.9c-1.7,0.6-3.3,1.4-4.8,2.4
			c-0.9,0.6-1.7,1.5-2.2,2.5c1.8,54,62.1,128.9,126.2,145.5c2-0.8,3.4-2.2,4.3-4.1c0.6-1.4,1.2-2.8,1.5-4.3c0.9-4.2,2.1-8.3,4-12.2
			c0.6-1.1,1.3-2.3,2.1-3.3c1.1-1.5,2.7-2.1,4.6-2c7.1,0.5,14.3,1,21.4,1.6c7.1,0.6,14.2,1.3,21.2,2c12.5,1.4,24.9,2.8,37.3,4.2
			c2.5,0.3,5,0.9,7.4,1.6c3.1,0.9,4.9,3.1,5.3,6.2c0.3,2.2,0.4,4.4,0.4,6.6c-0.2,5.2-0.7,10.4-1.7,15.5c-1.4,7-3.7,13.6-6.8,20
			c-0.8,1.7-1.7,3.3-2.5,5c-2.3,5.1-5.9,9.3-9.7,13.4c-9.2,9.7-19.8,17.6-31.8,23.6c-5.7,2.9-11.6,4.9-18,5.4
			c-4.2,0.3-8.3-0.1-12.4-1C313,424.8,312.3,424.7,311.8,424.6L311.8,424.6z"/>
	</g>
</g>
</svg>
