<?xml version="1.0" encoding="UTF-8"?><svg xmlns="http://www.w3.org/2000/svg" viewBox="0 0 500 500"><defs><style>.d{fill:#fff;}.e{fill:#06abda;}</style></defs><g id="a"/><g id="b"><g id="c"><circle class="e" cx="250" cy="250" r="250"/><path class="d" d="M311.83,424.61c-2.78-.68-5.3-1.29-7.81-1.94-.54-.14-1.08-.34-1.58-.59-8.41-4.1-16.88-8.07-25.19-12.35-50.19-25.81-91.89-61.65-125.21-107.13-25.88-35.33-44.38-74.31-56.12-116.5-1.66-5.98-3.25-11.97-4.83-17.97-.18-.68-.12-1.44-.03-2.15,.35-3.02,.7-6.04,1.15-9.05,.71-4.74,1.12-9.56,2.89-14.05,.78-1.97,1.87-3.86,3.04-5.64,6.67-10.15,14.44-19.33,23.88-27.04,12.78-10.45,27.3-17.28,43.44-20.63,3.69-.77,7.44-1.22,11.17-1.81,4.44-.72,7.96,2.08,8.87,6.19,.83,3.8,1.83,7.57,2.48,11.4,2.21,12.95,4.36,25.91,6.43,38.88,1.59,9.96,3.07,19.95,4.5,29.94,.41,2.84,.57,5.72,.7,8.59,.14,3.28-1.37,5.31-4.41,6.4-5.54,1.99-11.28,3.14-16.99,4.47-3.45,.81-6.88,1.77-10.25,2.87-1.69,.55-3.31,1.45-4.82,2.42-.9,.58-1.66,1.52-2.23,2.46,1.83,54.03,62.08,128.93,126.22,145.47,1.96-.84,3.41-2.23,4.27-4.14,.62-1.38,1.16-2.83,1.49-4.3,.94-4.2,2.13-8.3,4.05-12.16,.57-1.15,1.28-2.26,2.06-3.28,1.14-1.48,2.73-2.15,4.61-2.01,7.14,.52,14.29,1,21.43,1.61,7.08,.61,14.16,1.28,21.23,2.05,12.45,1.35,24.9,2.76,37.34,4.24,2.51,.3,4.99,.92,7.43,1.61,3.06,.87,4.85,3.08,5.33,6.17,.33,2.16,.44,4.38,.35,6.56-.22,5.19-.7,10.35-1.72,15.46-1.39,6.96-3.66,13.61-6.84,19.95-.83,1.66-1.72,3.3-2.5,4.99-2.34,5.1-5.87,9.32-9.7,13.35-9.23,9.7-19.79,17.62-31.75,23.65-5.68,2.86-11.62,4.92-18.03,5.39-4.2,.31-8.33-.14-12.44-1.01-.72-.15-1.44-.27-1.91-.36Z"/></g></g></svg>