<?xml version="1.0" encoding="UTF-8"?><svg xmlns="http://www.w3.org/2000/svg" viewBox="0 0 19.46 19.09"><defs><style>.e{fill:#fff;}.f{fill:#d0d0d0;}.g{fill-rule:evenodd;}</style></defs><g id="a"/><g id="b"><g id="c"><g id="d"><g><path class="f" d="M15.48,19.09H3.98c-2.2,0-3.98-1.78-3.98-3.98V3.98C0,1.78,1.78,0,3.98,0H15.48c2.2,0,3.98,1.78,3.98,3.98V15.12c0,2.19-1.78,3.97-3.98,3.97Z"/><path class="e" d="M19.46,15.08v-6.93c-.24-1.96-1.93-3.5-3.96-3.5H3.92c-1.95,0-3.59,1.43-3.92,3.29v7.14c0,2.2,1.78,3.98,3.98,3.98H15.48c2.2,0,3.98-1.78,3.98-3.98Z"/></g><path class="g" d="M10.82,6.62v-1.18c0-.56,.38-.7,.65-.7h1.64V2.24h-2.27c-2.51,0-3.07,1.86-3.07,3.06v1.32h-1.46v2.92h1.47v7.31h2.93v-7.31h2.17l.1-1.15,.17-1.78h-2.33Z"/></g></g></g></svg>