<?xml version="1.0" encoding="UTF-8"?><svg xmlns="http://www.w3.org/2000/svg" viewBox="0 0 19.46 19.09"><defs><style>.d{fill:#fff;}.e{fill:#d0d0d0;}</style></defs><g id="a"/><g id="b"><g id="c"><g><path class="e" d="M15.48,19.09H3.98c-2.2,0-3.98-1.78-3.98-3.98V3.98C0,1.78,1.78,0,3.98,0H15.48c2.2,0,3.98,1.78,3.98,3.98V15.12c0,2.19-1.78,3.97-3.98,3.97Z"/><path class="d" d="M19.46,15.08v-6.93c-.24-1.96-1.93-3.5-3.96-3.5H3.92c-1.95,0-3.59,1.43-3.92,3.29v7.14c0,2.2,1.78,3.98,3.98,3.98H15.48c2.2,0,3.98-1.78,3.98-3.98Z"/></g><path d="M12.99,16.29c-1.16,.61-2.33,.84-3.74,.84-3.44,0-6.36-2.52-6.36-6.55C2.9,6.25,5.9,2.52,10.56,2.52c3.65,0,6.11,2.56,6.11,6.07,0,3.15-1.76,5-3.74,5-.84,0-1.62-.57-1.55-1.85h-.08c-.74,1.24-1.7,1.85-2.96,1.85s-2.27-.99-2.27-2.65c0-2.6,2.06-4.98,4.98-4.98,.9,0,1.7,.19,2.25,.44l-.71,3.8c-.32,1.6-.06,2.33,.63,2.35,1.07,.02,2.27-1.41,2.27-3.84,0-3.04-1.83-5.23-5.08-5.23-3.42,0-6.3,2.71-6.3,6.97,0,3.51,2.29,5.67,5.4,5.67,1.2,0,2.31-.25,3.17-.73l.34,.9Zm-1.16-9.07c-.21-.06-.57-.15-1.05-.15-1.85,0-3.34,1.74-3.34,3.78,0,.92,.46,1.6,1.39,1.6,1.22,0,2.33-1.55,2.56-2.86l.44-2.37Z"/></g></g></svg>